<svg width="251" height="40" viewBox="0 0 251 40" fill="none" xmlns="http://www.w3.org/2000/svg">
<path d="M58.2402 31.2871C56.2988 31.2871 54.6126 30.8861 53.1816 30.084C51.7598 29.2728 50.6569 28.1289 49.873 26.6523C49.0983 25.1667 48.7109 23.4121 48.7109 21.3887V20.7188C48.7109 18.7865 49.0846 17.0775 49.832 15.5918C50.5885 14.097 51.6595 12.9258 53.0449 12.0781C54.4395 11.2305 56.1029 10.8066 58.0352 10.8066C59.375 10.8066 60.6374 10.998 61.8223 11.3809C63.0072 11.7637 64.0645 12.347 64.9941 13.1309V17.9434H62.0273L61.6172 14.9219C61.1615 14.6029 60.6465 14.3522 60.0723 14.1699C59.498 13.9785 58.8509 13.8828 58.1309 13.8828C56.4447 13.8828 55.1185 14.498 54.1523 15.7285C53.1862 16.9499 52.7031 18.6042 52.7031 20.6914V21.3887C52.7031 23.485 53.2044 25.1484 54.207 26.3789C55.2096 27.6094 56.5768 28.2246 58.3086 28.2246C58.8828 28.2246 59.457 28.1608 60.0312 28.0332C60.6146 27.8965 61.1432 27.7233 61.6172 27.5137L62.0273 24.7109H64.9941V29.4688C64.2194 29.9792 63.2533 30.4121 62.0957 30.7676C60.9382 31.1139 59.653 31.2871 58.2402 31.2871ZM73.9902 31.2871C72.5228 31.2871 71.265 30.9681 70.2168 30.3301C69.1777 29.6921 68.3802 28.8079 67.8242 27.6777C67.2682 26.5384 66.9902 25.2305 66.9902 23.7539V23.4668C66.9902 21.9993 67.2682 20.7005 67.8242 19.5703C68.3802 18.431 69.1777 17.5423 70.2168 16.9043C71.265 16.2572 72.5137 15.9336 73.9629 15.9336C75.4212 15.9336 76.6699 16.2526 77.709 16.8906C78.7572 17.5286 79.5592 18.4173 80.1152 19.5566C80.6712 20.6868 80.9492 21.9902 80.9492 23.4668V23.7539C80.9492 25.2305 80.6712 26.5384 80.1152 27.6777C79.5592 28.8079 78.7617 29.6921 77.7227 30.3301C76.6836 30.9681 75.4395 31.2871 73.9902 31.2871ZM73.9902 28.2246C75.0202 28.2246 75.7721 27.8145 76.2461 26.9941C76.7292 26.1738 76.9707 25.0938 76.9707 23.7539V23.4668C76.9707 22.1543 76.7292 21.0833 76.2461 20.2539C75.763 19.4245 75.002 19.0098 73.9629 19.0098C72.9238 19.0098 72.1673 19.4245 71.6934 20.2539C71.2194 21.0833 70.9824 22.1543 70.9824 23.4668V23.7539C70.9824 25.1029 71.2194 26.1875 71.6934 27.0078C72.1673 27.819 72.9329 28.2246 73.9902 28.2246ZM82.5898 31V28.6074L84.5039 28.1973V19.0234L82.3848 18.6133V16.207H88.2227L88.4004 18.3262C88.8926 17.5697 89.4987 16.9818 90.2188 16.5625C90.9479 16.1432 91.7773 15.9336 92.707 15.9336C94.1654 15.9336 95.3092 16.403 96.1387 17.3418C96.9772 18.2806 97.3965 19.7526 97.3965 21.7578V28.1973L99.3105 28.6074V31H91.6816V28.6074L93.3906 28.1973V21.7715C93.3906 20.778 93.1901 20.0762 92.7891 19.666C92.3971 19.2467 91.8184 19.0371 91.0527 19.0371C89.9408 19.0371 89.0885 19.502 88.4961 20.4316V28.1973L90.1094 28.6074V31H82.5898ZM105.941 31.2871C104.565 31.2871 103.503 30.9089 102.756 30.1523C102.018 29.3958 101.648 28.1973 101.648 26.5566V19.0098H99.6113V16.207H101.648V12.584H105.627V16.207H108.348V19.0098H105.627V26.543C105.627 27.1172 105.745 27.5273 105.982 27.7734C106.229 28.0195 106.561 28.1426 106.98 28.1426C107.199 28.1426 107.436 28.1289 107.691 28.1016C107.947 28.0651 108.165 28.0286 108.348 27.9922L108.689 30.877C108.288 30.9954 107.846 31.0911 107.363 31.1641C106.88 31.2461 106.406 31.2871 105.941 31.2871ZM110.494 31V28.6074L112.408 28.1973V19.0234L110.289 18.6133V16.207H116.127L116.277 18.0391L116.305 18.3672C117.034 16.7448 118.128 15.9336 119.586 15.9336C119.823 15.9336 120.078 15.9518 120.352 15.9883C120.634 16.0247 120.889 16.0794 121.117 16.1523L120.693 19.8301L118.711 19.7207C118.146 19.6934 117.686 19.7891 117.33 20.0078C116.984 20.2266 116.674 20.541 116.4 20.9512V28.1973L118.314 28.6074V31H110.494ZM126.982 31.2871C125.515 31.2871 124.348 30.8952 123.482 30.1113C122.617 29.3184 122.184 28.2428 122.184 26.8848C122.184 25.4993 122.744 24.3691 123.865 23.4941C124.995 22.6191 126.654 22.1816 128.842 22.1816H130.797V21.0879C130.797 20.377 130.587 19.8027 130.168 19.3652C129.758 18.9186 129.138 18.6953 128.309 18.6953C127.88 18.6953 127.493 18.75 127.146 18.8594C126.809 18.9596 126.504 19.1055 126.23 19.2969L125.916 21.252H123.045L122.99 17.4102C123.765 16.9727 124.604 16.6172 125.506 16.3438C126.408 16.0703 127.415 15.9336 128.527 15.9336C130.46 15.9336 131.986 16.3848 133.107 17.2871C134.229 18.1895 134.789 19.4701 134.789 21.1289V27.2266C134.789 27.4271 134.789 27.623 134.789 27.8145C134.798 28.0059 134.816 28.1973 134.844 28.3887L136.389 28.6074V31H131.439C131.339 30.7448 131.239 30.4714 131.139 30.1797C131.038 29.888 130.965 29.5964 130.92 29.3047C130.446 29.9062 129.885 30.3893 129.238 30.7539C128.6 31.1094 127.848 31.2871 126.982 31.2871ZM128.049 28.334C128.605 28.334 129.129 28.2109 129.621 27.9648C130.122 27.7096 130.514 27.377 130.797 26.9668V24.6289H128.828C127.953 24.6289 127.288 24.8294 126.832 25.2305C126.385 25.6315 126.162 26.1146 126.162 26.6797C126.162 27.2083 126.326 27.6185 126.654 27.9102C126.992 28.1927 127.456 28.334 128.049 28.334ZM144.77 31.2871C143.348 31.2871 142.117 30.9681 141.078 30.3301C140.048 29.6921 139.255 28.8125 138.699 27.6914C138.143 26.5703 137.865 25.2806 137.865 23.8223V23.4121C137.865 21.9629 138.148 20.6777 138.713 19.5566C139.278 18.4264 140.076 17.5423 141.105 16.9043C142.135 16.2572 143.348 15.9336 144.742 15.9336C146.064 15.9336 147.208 16.1432 148.174 16.5625C149.14 16.9727 149.924 17.4512 150.525 17.998L150.498 22.2363H147.49L146.957 19.5977C146.738 19.3789 146.46 19.2012 146.123 19.0645C145.786 18.9277 145.444 18.8594 145.098 18.8594C144.004 18.8594 143.188 19.265 142.65 20.0762C142.122 20.8783 141.857 21.9902 141.857 23.4121V23.8223C141.857 25.3444 142.145 26.4609 142.719 27.1719C143.293 27.8737 143.986 28.2246 144.797 28.2246C145.499 28.2246 146.059 28.0423 146.479 27.6777C146.907 27.304 147.203 26.7799 147.367 26.1055H150.771L150.812 26.1875C150.576 27.7643 149.992 29.0085 149.062 29.9199C148.133 30.8314 146.702 31.2871 144.77 31.2871ZM158.414 31.2871C157.038 31.2871 155.976 30.9089 155.229 30.1523C154.49 29.3958 154.121 28.1973 154.121 26.5566V19.0098H152.084V16.207H154.121V12.584H158.1V16.207H160.82V19.0098H158.1V26.543C158.1 27.1172 158.218 27.5273 158.455 27.7734C158.701 28.0195 159.034 28.1426 159.453 28.1426C159.672 28.1426 159.909 28.1289 160.164 28.1016C160.419 28.0651 160.638 28.0286 160.82 27.9922L161.162 30.877C160.761 30.9954 160.319 31.0911 159.836 31.1641C159.353 31.2461 158.879 31.2871 158.414 31.2871ZM162.57 31V28.6074L164.689 28.1973V13.9102L162.57 13.5V11.0938H170.814V13.5L168.682 13.9102V19.6523H176.803V13.9102L174.67 13.5V11.0938H182.914V13.5L180.781 13.9102V28.1973L182.914 28.6074V31H174.67V28.6074L176.803 28.1973V22.7285H168.682V28.1973L170.814 28.6074V31H162.57ZM191.623 31.2871C190.201 31.2871 188.962 30.9772 187.904 30.3574C186.856 29.7285 186.04 28.8672 185.457 27.7734C184.883 26.6797 184.596 25.431 184.596 24.0273V23.4805C184.596 22.013 184.869 20.7142 185.416 19.584C185.963 18.4447 186.733 17.5514 187.727 16.9043C188.729 16.248 189.91 15.9245 191.268 15.9336C193.264 15.9336 194.79 16.5215 195.848 17.6973C196.905 18.8639 197.434 20.5046 197.434 22.6191V24.793H188.738L188.711 24.875C188.784 25.8503 189.107 26.6523 189.682 27.2812C190.256 27.9102 191.072 28.2246 192.129 28.2246C192.858 28.2246 193.537 28.1335 194.166 27.9512C194.804 27.7598 195.424 27.4818 196.025 27.1172L197.105 29.5781C196.495 30.0703 195.725 30.4805 194.795 30.8086C193.874 31.1276 192.817 31.2871 191.623 31.2871ZM188.766 22.1543H193.701V21.7988C193.701 20.9056 193.514 20.1992 193.141 19.6797C192.776 19.151 192.174 18.8867 191.336 18.8867C190.534 18.8867 189.923 19.1921 189.504 19.8027C189.085 20.4043 188.825 21.1654 188.725 22.0859L188.766 22.1543ZM199.58 31V28.6074L201.494 28.1973V19.0234L199.375 18.6133V16.207H205.213L205.363 18.0391L205.391 18.3672C206.12 16.7448 207.214 15.9336 208.672 15.9336C208.909 15.9336 209.164 15.9518 209.438 15.9883C209.72 16.0247 209.975 16.0794 210.203 16.1523L209.779 19.8301L207.797 19.7207C207.232 19.6934 206.771 19.7891 206.416 20.0078C206.07 20.2266 205.76 20.541 205.486 20.9512V28.1973L207.4 28.6074V31H199.58ZM218.174 31.2871C216.706 31.2871 215.449 30.9681 214.4 30.3301C213.361 29.6921 212.564 28.8079 212.008 27.6777C211.452 26.5384 211.174 25.2305 211.174 23.7539V23.4668C211.174 21.9993 211.452 20.7005 212.008 19.5703C212.564 18.431 213.361 17.5423 214.4 16.9043C215.449 16.2572 216.697 15.9336 218.146 15.9336C219.605 15.9336 220.854 16.2526 221.893 16.8906C222.941 17.5286 223.743 18.4173 224.299 19.5566C224.855 20.6868 225.133 21.9902 225.133 23.4668V23.7539C225.133 25.2305 224.855 26.5384 224.299 27.6777C223.743 28.8079 222.945 29.6921 221.906 30.3301C220.867 30.9681 219.623 31.2871 218.174 31.2871ZM218.174 28.2246C219.204 28.2246 219.956 27.8145 220.43 26.9941C220.913 26.1738 221.154 25.0938 221.154 23.7539V23.4668C221.154 22.1543 220.913 21.0833 220.43 20.2539C219.947 19.4245 219.186 19.0098 218.146 19.0098C217.107 19.0098 216.351 19.4245 215.877 20.2539C215.403 21.0833 215.166 22.1543 215.166 23.4668V23.7539C215.166 25.1029 215.403 26.1875 215.877 27.0078C216.351 27.819 217.117 28.2246 218.174 28.2246Z" fill="#21456A"/>
<path d="M0 3.2C0 1.43269 1.43269 0 3.2 0H16.549C18.2464 0 19.8743 0.674284 21.0745 1.87452L30.1255 10.9255C31.3257 12.1257 32 13.7536 32 15.451V36.8C32 38.5673 30.5673 40 28.8 40H3.2C1.43269 40 0 38.5673 0 36.8V3.2Z" fill="#124172"/>
<path d="M24 22.4C24 26.8183 20.4183 30.4 16 30.4C11.5817 30.4 8 26.8183 8 22.4" stroke="#9ECAFF" stroke-width="4" stroke-linecap="round"/>
</svg>
